<!-- Generated by IcoMoon.io -->
<svg version="1.1" xmlns="http://www.w3.org/2000/svg" viewBox="0 0 1024 1024">
<title></title>
<g id="icomoon-ignore">
</g>
<path d="M224.192 535.712l469.088 478.016c6.72 6.848 14.432 10.272 23.168 10.272s16.448-3.424 23.168-10.272l50.336-51.296c6.72-6.848 10.080-14.688 10.080-23.584s-3.36-16.768-10.080-23.584l-395.616-403.136 395.616-403.168c6.72-6.848 10.080-14.72 10.080-23.584s-3.36-16.768-10.080-23.616l-50.336-51.264c-6.72-6.848-14.432-10.24-23.168-10.24s-16.448 3.424-23.168 10.24l-469.088 478.016c-6.72 6.848-10.048 14.72-10.048 23.584s3.328 16.768 10.048 23.616z"></path>
</svg>
