<!-- Generated by IcoMoon.io -->
<svg version="1.1" xmlns="http://www.w3.org/2000/svg" viewBox="0 0 1024 1024">
<title></title>
<g id="icomoon-ignore">
</g>
<path d="M488.288 224.192l-478.016 469.088c-6.848 6.72-10.272 14.432-10.272 23.168s3.424 16.448 10.272 23.168l51.296 50.336c6.848 6.72 14.688 10.080 23.584 10.080s16.768-3.36 23.584-10.080l403.136-395.616 403.168 395.616c6.848 6.72 14.72 10.080 23.584 10.080s16.768-3.36 23.616-10.080l51.264-50.336c6.848-6.72 10.24-14.432 10.24-23.168s-3.424-16.448-10.24-23.168l-478.016-469.088c-6.848-6.72-14.72-10.048-23.584-10.048s-16.768 3.328-23.616 10.048z"></path>
</svg>
