<!-- Generated by IcoMoon.io -->
<svg version="1.1" xmlns="http://www.w3.org/2000/svg" viewBox="0 0 1024 1024">
<title></title>
<g id="icomoon-ignore">
</g>
<path fill="#000" d="M329.92 662.016h0.032c0.032 0 0.064 0 0.128 0h543.904c13.376 0 25.152-8.896 28.832-21.76l120-420c2.592-9.056 0.768-18.784-4.896-26.304s-14.528-11.936-23.968-11.936h-733.28l-21.44-96.512c-3.040-13.728-15.232-23.488-29.28-23.488h-180c-16.576 0-30.016 13.44-30.016 30.016s13.44 30.016 30.016 30.016h155.936c3.808 17.088 102.624 461.824 108.32 487.424-31.872 13.856-54.24 45.664-54.24 82.592 0 49.632 40.384 90.016 90.016 90.016h544c16.576 0 30.016-13.44 30.016-30.016s-13.44-30.016-30.016-30.016h-544c-16.544 0-30.016-13.472-30.016-30.016s13.408-29.952 29.92-29.984zM954.24 242.016l-102.848 360h-497.312l-80-360z"></path>
<path fill="#000" d="M300 872c0 49.632 40.384 90.016 90.016 90.016s90.016-40.384 90.016-90.016-40.384-90.016-90.016-90.016-90.016 40.384-90.016 90.016zM390.016 842.016c16.544 0 30.016 13.472 30.016 30.016s-13.472 30.016-30.016 30.016-30.016-13.472-30.016-30.016 13.472-30.016 30.016-30.016z"></path>
<path fill="#000" d="M724 872c0 49.632 40.384 90.016 90.016 90.016s90.016-40.384 90.016-90.016-40.384-90.016-90.016-90.016-90.016 40.384-90.016 90.016zM814.016 842.016c16.544 0 30.016 13.472 30.016 30.016s-13.472 30.016-30.016 30.016-30.016-13.472-30.016-30.016 13.472-30.016 30.016-30.016z"></path>
</svg>
