<!-- Generated by IcoMoon.io -->
<svg version="1.1" xmlns="http://www.w3.org/2000/svg" viewBox="0 0 1024 1024">
<title></title>
<g id="icomoon-ignore">
</g>
<path d="M269.888 545.376h112.256v462.112c0 9.12 7.392 16.512 16.512 16.512h190.304c9.12 0 16.512-7.392 16.512-16.512v-459.936h129.024c8.384 0 15.456-6.304 16.416-14.624l19.584-170.112c0.544-4.672-0.96-9.376-4.064-12.864s-7.616-5.536-12.32-5.536h-148.64v-106.656c0-32.16 17.312-48.448 51.456-48.448 4.864 0 97.184 0 97.184 0 9.12 0 16.512-7.392 16.512-16.512v-156.16c0-9.12-7.392-16.512-16.512-16.512h-133.92c-0.96-0.032-3.040-0.128-6.144-0.128-23.232 0-104 4.576-167.808 63.264-70.688 65.056-60.864 142.944-58.528 156.448v124.704h-117.824c-9.12 0-16.512 7.392-16.512 16.512v167.936c0 9.12 7.392 16.512 16.512 16.512z"></path>
</svg>
