<!-- Generated by IcoMoon.io -->
<svg version="1.1" xmlns="http://www.w3.org/2000/svg" viewBox="0 0 1024 1024">
<title></title>
<g id="icomoon-ignore">
</g>
<path d="M238.368 329.44h-205.568c-9.12 0-16.512 7.392-16.512 16.512v660.416c0 9.12 7.392 16.512 16.512 16.512h205.568c9.12 0 16.512-7.392 16.512-16.512v-660.416c0-9.12-7.392-16.512-16.512-16.512z"></path>
<path d="M135.648 1.12c-74.784 0-135.648 60.8-135.648 135.488 0 74.752 60.864 135.552 135.648 135.552 74.752 0 135.552-60.8 135.552-135.552s-60.8-135.488-135.552-135.488z"></path>
<path d="M761.248 313.024c-82.56 0-143.584 35.488-180.608 75.808v-42.88c0-9.12-7.392-16.512-16.512-16.512h-196.864c-9.12 0-16.512 7.392-16.512 16.512v660.416c0 9.12 7.392 16.512 16.512 16.512h205.12c9.12 0 16.512-7.392 16.512-16.512v-326.752c0-110.112 29.92-152.992 106.656-152.992 83.584 0 90.24 68.768 90.24 158.656v321.088c0 9.12 7.392 16.512 16.512 16.512h205.184c9.12 0 16.512-7.392 16.512-16.512v-362.24c0-163.712-31.232-331.104-262.752-331.104z"></path>
</svg>
