<!-- Generated by IcoMoon.io -->
<svg version="1.1" xmlns="http://www.w3.org/2000/svg" viewBox="0 0 1024 1024">
<title></title>
<g id="icomoon-ignore">
</g>
<path fill="#000" d="M413.184 107.776c168.416 0 305.408 136.992 305.408 305.408s-136.992 305.408-305.408 305.408c-168.416 0-305.408-136.992-305.408-305.408s136.992-305.408 305.408-305.408zM973.024 932.16l-243.552-253.312c62.624-74.432 96.928-168.128 96.928-265.632 0-227.84-185.376-413.184-413.184-413.184s-413.184 185.376-413.184 413.184c0 227.84 185.376 413.184 413.184 413.184 85.536 0 167.040-25.792 236.736-74.784l245.408 255.232c10.272 10.656 24.064 16.544 38.848 16.544 13.984 0 27.264-5.344 37.344-15.040 21.408-20.608 22.112-54.784 1.504-76.192z"></path>
</svg>
