<!-- Generated by IcoMoon.io -->
<svg version="1.1" xmlns="http://www.w3.org/2000/svg" width="16" height="16" viewBox="0 0 1024 1024">
<title></title>
<g id="icomoon-ignore">
</g>
<path d="M372.364 512c0 25.706-20.839 46.545-46.545 46.545s-46.545-20.839-46.545-46.545c0-25.706 20.839-46.545 46.545-46.545s46.545 20.839 46.545 46.545z"></path>
<path d="M558.545 512c0 25.706-20.839 46.545-46.545 46.545s-46.545-20.839-46.545-46.545c0-25.706 20.839-46.545 46.545-46.545s46.545 20.839 46.545 46.545z"></path>
<path d="M874.075 149.928c-96.687-96.688-225.194-149.928-362.065-149.928s-265.378 53.24-362.065 149.928c-96.687 96.688-149.925 225.198-149.925 362.072 0 89.549 23.458 177.67 67.925 254.776l2.244 3.876-68.741 213.367c-3.468 11.015-0.612 22.846 7.547 31.006 5.711 5.712 13.667 8.975 21.622 8.975 3.264 0 6.323-0.408 9.383-1.428l213.159-68.743 3.876 2.244c77.308 44.469 165.428 67.927 254.975 67.927 136.871 0 265.378-53.24 362.065-149.928s149.925-225.198 149.925-362.072c0-136.873-53.239-265.383-149.925-362.072zM512.010 962.805c-84.652 0-167.060-23.662-238.657-68.335-4.896-3.060-10.403-4.692-16.318-4.692-3.264 0-6.323 0.408-9.383 1.428l-169.711 54.668 54.667-169.715c2.856-8.567 1.632-17.951-3.264-25.702-44.468-71.394-68.129-153.804-68.129-238.457 0-248.657 202.144-450.805 450.796-450.805s450.796 202.148 450.796 450.805c0 248.657-202.144 450.805-450.796 450.805z"></path>
<path d="M744.727 512c0 25.706-20.839 46.545-46.545 46.545s-46.545-20.839-46.545-46.545c0-25.706 20.839-46.545 46.545-46.545s46.545 20.839 46.545 46.545z"></path>
</svg>
