<!-- Generated by IcoMoon.io -->
<svg version="1.1" xmlns="http://www.w3.org/2000/svg" viewBox="0 0 1479 1024">
<title></title>
<g id="icomoon-ignore">
</g>
<path d="M341.333 910.222h1080.889c31.419 0 56.889 25.47 56.889 56.889s-25.47 56.889-56.889 56.889h-1080.889c-31.419 0-56.889-25.47-56.889-56.889s25.47-56.889 56.889-56.889z"></path>
<path d="M341.333 455.111h1080.889c31.419 0 56.889 25.47 56.889 56.889s-25.47 56.889-56.889 56.889h-1080.889c-31.419 0-56.889-25.47-56.889-56.889s25.47-56.889 56.889-56.889z"></path>
<path d="M56.889 0c31.419 0 56.889 25.47 56.889 56.889s-25.47 56.889-56.889 56.889c-31.419 0-56.889-25.47-56.889-56.889s25.47-56.889 56.889-56.889z"></path>
<path d="M56.889 455.111c31.419 0 56.889 25.47 56.889 56.889s-25.47 56.889-56.889 56.889c-31.419 0-56.889-25.47-56.889-56.889s25.47-56.889 56.889-56.889z"></path>
<path d="M56.889 910.222c31.419 0 56.889 25.47 56.889 56.889s-25.47 56.889-56.889 56.889c-31.419 0-56.889-25.47-56.889-56.889s25.47-56.889 56.889-56.889z"></path>
<path d="M341.333 0h1080.889c31.419 0 56.889 25.47 56.889 56.889s-25.47 56.889-56.889 56.889h-1080.889c-31.419 0-56.889-25.47-56.889-56.889s25.47-56.889 56.889-56.889z"></path>
</svg>
