<!-- Generated by IcoMoon.io -->
<svg version="1.1" xmlns="http://www.w3.org/2000/svg" viewBox="0 0 1122 1024">
<title></title>
<g id="icomoon-ignore">
</g>
<path d="M243.81 390.095c134.652 0 243.81 108.681 243.81 242.746 0 62.663-23.848 119.781-63 162.847l-180.809 228.311-183.328-231.125c-37.654-42.725-60.482-98.725-60.482-160.034 0-134.065 109.157-242.746 243.81-242.746zM1060.041 12.19c18.515 0 33.816 13.758 36.238 31.609l0.334 4.963v805.631c0 18.515-13.758 33.816-31.609 36.238l-4.963 0.334h-579.169c-20.198 0-36.571-16.374-36.571-36.571 0-18.515 13.758-33.816 31.609-36.238l4.963-0.334 542.591-0.036v-732.453l-260.242-0.049 0.008 319.651-106.004-106.004-106.004 106.004-0.017-319.651-260.242 0.049 0.019 207.238c0 18.515-13.758 33.816-31.609 36.238l-4.963 0.334c-18.515 0-33.816-13.758-36.238-31.609l-0.334-4.963v-243.81c0-18.515 13.758-33.816 31.609-36.238l4.963-0.334h805.631zM237.537 533.849c-53.861 0-97.524 43.663-97.524 97.524s43.663 97.524 97.524 97.524c53.861 0 97.524-43.663 97.524-97.524s-43.663-97.524-97.524-97.524z"></path>
</svg>
