<?xml version="1.0" encoding="UTF-8"?>
<svg width="19px" height="22px" viewBox="0 0 19 22" version="1.1" xmlns="http://www.w3.org/2000/svg" xmlns:xlink="http://www.w3.org/1999/xlink">
    <title>Group 6</title>
    <g id="Symbols" stroke="none" stroke-width="1" fill-rule="evenodd">
        <g id="menu_opt1" transform="translate(-882.000000, -52.000000)">
            <g id="Group-35" transform="translate(-9.000000, -21.000000)">
                <g id="Group-6" transform="translate(891.000000, 73.000000)">
                    <path d="M9.4999777,3 C5.36440595,3 2,6.26314727 2,10.2742505 L2,18 L3.55169799,18 L3.55169799,10.2742505 C3.55169799,7.09316645 6.21986923,4.50499647 9.4999777,4.50499647 C12.7800862,4.50499647 15.4482574,7.09312319 15.4482574,10.2742505 L15.4482574,18 L17,18 L17,10.2742505 C17,6.26314727 13.6355495,3 9.4999777,3 Z" id="Path" fill-rule="nonzero"></path>
                    <path d="M10,0 C8.89717874,0 8,0.897178742 8,2 C8,3.10282126 8.89717874,4 10,4 C11.1028213,4 12,3.10282126 12,2 C12,0.897178742 11.1028213,0 10,0 Z M10,2.69566032 C9.62283251,2.69566032 9.30433968,2.37698004 9.30433968,2 C9.30433968,1.62283251 9.62283251,1.30433968 10,1.30433968 C10.3771675,1.30433968 10.6956603,1.62283251 10.6956603,2 C10.6956603,2.37716749 10.3771675,2.69566032 10,2.69566032 Z" id="Shape" fill-rule="nonzero"></path>
                    <path d="M11.3636235,18 L11.3636235,19.2839517 C11.3636235,19.9646777 10.7518931,20.5185075 10,20.5185075 C9.24810686,20.5185075 8.63637646,19.9646777 8.63637646,19.2839517 L8.63637646,18 L7,18 L7,19.2839517 C7,20.7814553 8.34589154,22 10,22 C11.6540614,22 13,20.7814978 13,19.2839517 L13,18 L11.3636235,18 Z" id="Path" fill-rule="nonzero"></path>
                    <circle id="Oval" fill="#FFBE00" cx="16" cy="7" r="3"></circle>
                    <rect id="Rectangle" x="0" y="17" width="19" height="2" rx="1"></rect>
                </g>
            </g>
        </g>
    </g>
</svg>
