<!-- Generated by IcoMoon.io -->
<svg version="1.1" xmlns="http://www.w3.org/2000/svg" viewBox="0 0 1024 1024">
<title></title>
<g id="icomoon-ignore">
</g>
<path d="M874.039 149.961c-96.703-96.703-225.281-149.961-362.039-149.961-136.765 0-265.336 53.258-362.039 149.961s-149.961 225.273-149.961 362.039c0 136.758 53.258 265.336 149.961 362.039s225.273 149.961 362.039 149.961c136.758 0 265.336-53.258 362.039-149.961s149.961-225.281 149.961-362.039c0-136.766-53.258-265.336-149.961-362.039zM256.68 884.773c21.414-123.297 128.258-214.242 255.32-214.242 127.070 0 233.906 90.945 255.32 214.242-72.696 49.945-160.648 79.227-255.32 79.227s-182.625-29.281-255.32-79.227zM349.203 447.734c0-89.773 73.031-162.797 162.797-162.797s162.797 73.031 162.797 162.797c0 89.766-73.031 162.797-162.797 162.797s-162.797-73.031-162.797-162.797zM819.289 843.156c-16.148-57.398-48.219-109.477-93.172-150.156-27.578-24.961-58.968-44.656-92.719-58.539 61-39.789 101.406-108.625 101.406-186.727 0-122.852-99.953-222.797-222.805-222.797s-222.797 99.945-222.797 222.797c0 78.102 40.406 146.938 101.398 186.727-33.742 13.883-65.141 33.57-92.719 58.531-44.946 40.68-77.023 92.758-93.172 150.164-88.946-82.609-144.711-200.484-144.711-331.156 0-249.234 202.766-452 452-452s452 202.766 452 452c0 130.68-55.766 248.555-144.711 331.156z"></path>
</svg>
