<!-- Generated by IcoMoon.io -->
<svg version="1.1" xmlns="http://www.w3.org/2000/svg" viewBox="0 0 1024 1024">
<title></title>
<g id="icomoon-ignore">
</g>
<path d="M379.424 704.064v-379.424l317.76 189.696-317.76 189.696zM967.296 230.592c-27.424-48.928-57.152-57.92-117.696-61.344-60.48-4.128-212.576-5.824-344.352-5.824-132.032 0-284.192 1.728-344.608 5.76-60.416 3.488-90.208 12.416-117.856 61.408-28.224 48.864-42.752 133.024-42.752 281.216v0.512c0 147.552 14.528 232.352 42.752 280.704 27.648 48.928 57.376 57.792 117.824 61.92 60.48 3.552 212.64 5.632 344.672 5.632 131.776 0 283.872-2.080 344.416-5.568 60.544-4.128 90.272-12.992 117.696-61.92 28.48-48.384 42.88-133.152 42.88-280.704v-0.512c0-148.256-14.4-232.416-42.944-281.28v0z"></path>
</svg>
